<?xml version="1.0" encoding="UTF-8"?>
<!DOCTYPE svg PUBLIC "-//W3C//DTD SVG 1.1//EN" "http://www.w3.org/Graphics/SVG/1.1/DTD/svg11.dtd">
<svg version="1.2" width="352.77mm" height="214.68mm" viewBox="0 0 35277 21468" preserveAspectRatio="xMidYMid" fill-rule="evenodd" stroke-width="28.222" stroke-linejoin="round" xmlns="http://www.w3.org/2000/svg" xmlns:ooo="http://xml.openoffice.org/svg/export" xmlns:xlink="http://www.w3.org/1999/xlink" xmlns:presentation="http://sun.com/xmlns/staroffice/presentation" xmlns:smil="http://www.w3.org/2001/SMIL20/" xmlns:anim="urn:oasis:names:tc:opendocument:xmlns:animation:1.0" xmlns:svg="urn:oasis:names:tc:opendocument:xmlns:svg-compatible:1.0" xml:space="preserve">
 <defs class="ClipPathGroup">
  <clipPath id="presentation_clip_path" clipPathUnits="userSpaceOnUse">
   <rect x="0" y="0" width="35277" height="21468"/>
  </clipPath>
  <clipPath id="presentation_clip_path_shrink" clipPathUnits="userSpaceOnUse">
   <rect x="35" y="21" width="35207" height="21426"/>
  </clipPath>
 </defs>
 <defs class="TextShapeIndex">
  <g ooo:slide="id1" ooo:id-list="id3 id4 id5 id6 id7 id8 id9 id10 id11 id12 id13 id14 id15 id16 id17 id18 id19 id20 id21 id22 id23 id24 id25 id26 id27 id28 id29 id30 id31 id32 id33 id34 id35 id36 id37 id38 id39 id40 id41 id42 id43 id44 id45"/>
 </defs>
 <defs class="EmbeddedBulletChars">
  <g id="bullet-char-template-57356" transform="scale(0.00048828125,-0.00048828125)">
   <path d="M 580,1141 L 1163,571 580,0 -4,571 580,1141 Z"/>
  </g>
  <g id="bullet-char-template-57354" transform="scale(0.00048828125,-0.00048828125)">
   <path d="M 8,1128 L 1137,1128 1137,0 8,0 8,1128 Z"/>
  </g>
  <g id="bullet-char-template-10146" transform="scale(0.00048828125,-0.00048828125)">
   <path d="M 174,0 L 602,739 174,1481 1456,739 174,0 Z M 1358,739 L 309,1346 659,739 1358,739 Z"/>
  </g>
  <g id="bullet-char-template-10132" transform="scale(0.00048828125,-0.00048828125)">
   <path d="M 2015,739 L 1276,0 717,0 1260,543 174,543 174,936 1260,936 717,1481 1274,1481 2015,739 Z"/>
  </g>
  <g id="bullet-char-template-10007" transform="scale(0.00048828125,-0.00048828125)">
   <path d="M 0,-2 C -7,14 -16,27 -25,37 L 356,567 C 262,823 215,952 215,954 215,979 228,992 255,992 264,992 276,990 289,987 310,991 331,999 354,1012 L 381,999 492,748 772,1049 836,1024 860,1049 C 881,1039 901,1025 922,1006 886,937 835,863 770,784 769,783 710,716 594,584 L 774,223 C 774,196 753,168 711,139 L 727,119 C 717,90 699,76 672,76 641,76 570,178 457,381 L 164,-76 C 142,-110 111,-127 72,-127 30,-127 9,-110 8,-76 1,-67 -2,-52 -2,-32 -2,-23 -1,-13 0,-2 Z"/>
  </g>
  <g id="bullet-char-template-10004" transform="scale(0.00048828125,-0.00048828125)">
   <path d="M 285,-33 C 182,-33 111,30 74,156 52,228 41,333 41,471 41,549 55,616 82,672 116,743 169,778 240,778 293,778 328,747 346,684 L 369,508 C 377,444 397,411 428,410 L 1163,1116 C 1174,1127 1196,1133 1229,1133 1271,1133 1292,1118 1292,1087 L 1292,965 C 1292,929 1282,901 1262,881 L 442,47 C 390,-6 338,-33 285,-33 Z"/>
  </g>
  <g id="bullet-char-template-9679" transform="scale(0.00048828125,-0.00048828125)">
   <path d="M 813,0 C 632,0 489,54 383,161 276,268 223,411 223,592 223,773 276,916 383,1023 489,1130 632,1184 813,1184 992,1184 1136,1130 1245,1023 1353,916 1407,772 1407,592 1407,412 1353,268 1245,161 1136,54 992,0 813,0 Z"/>
  </g>
  <g id="bullet-char-template-8226" transform="scale(0.00048828125,-0.00048828125)">
   <path d="M 346,457 C 273,457 209,483 155,535 101,586 74,649 74,723 74,796 101,859 155,911 209,963 273,989 346,989 419,989 480,963 531,910 582,859 608,796 608,723 608,648 583,586 532,535 482,483 420,457 346,457 Z"/>
  </g>
  <g id="bullet-char-template-8211" transform="scale(0.00048828125,-0.00048828125)">
   <path d="M -4,459 L 1135,459 1135,606 -4,606 -4,459 Z"/>
  </g>
  <g id="bullet-char-template-61548" transform="scale(0.00048828125,-0.00048828125)">
   <path d="M 173,740 C 173,903 231,1043 346,1159 462,1274 601,1332 765,1332 928,1332 1067,1274 1183,1159 1299,1043 1357,903 1357,740 1357,577 1299,437 1183,322 1067,206 928,148 765,148 601,148 462,206 346,322 231,437 173,577 173,740 Z"/>
  </g>
 </defs>
 <g>
  <g id="id2" class="Master_Slide">
   <g id="bg-id2" class="Background"/>
   <g id="bo-id2" class="BackgroundObjects"/>
  </g>
 </g>
 <g class="SlideGroup">
  <g>
   <g id="container-id1">
    <g id="id1" class="Slide" clip-path="url(#presentation_clip_path)">
     <g class="Page">
      <g class="com.sun.star.drawing.ClosedBezierShape">
       <g id="id3">
        <rect class="BoundingBox" stroke="none" fill="none" x="1884" y="16194" width="4050" height="2797"/>
        <path fill="rgb(251,199,149)" stroke="none" d="M 5912,18984 C 5628,18984 5344,18973 5063,18953 5043,18953 5028,18947 5017,18937 5008,18924 5006,18910 5012,18894 5020,18871 5023,18843 5026,18811 5026,18780 5028,18748 5028,18715 5028,18536 5017,18355 4997,18173 4979,17988 4956,17806 4933,17624 4927,17568 4919,17520 4913,17482 4907,17445 4901,17407 4896,17373 4892,17338 4887,17303 4881,17266 4876,17229 4872,17184 4869,17127 4743,17332 4624,17540 4514,17751 4402,17962 4290,18175 4177,18387 4128,18482 4079,18577 4029,18670 3978,18762 3928,18855 3874,18949 3865,18966 3851,18975 3833,18976 3813,18978 3796,18972 3779,18958 3697,18863 3618,18759 3543,18647 3470,18537 3397,18424 3328,18308 3257,18191 3193,18073 3130,17955 3069,17837 3011,17724 2954,17613 2927,17561 2905,17517 2887,17480 2870,17444 2852,17408 2835,17376 2818,17343 2801,17307 2783,17271 2765,17234 2740,17191 2711,17142 2705,17208 2696,17271 2685,17330 2676,17390 2667,17451 2656,17514 2630,17687 2606,17860 2584,18031 2563,18207 2552,18376 2552,18546 L 2552,18626 C 2552,18672 2552,18709 2555,18735 2555,18762 2560,18782 2564,18794 2569,18808 2578,18817 2590,18822 2601,18826 2616,18832 2636,18840 2653,18846 2671,18852 2693,18857 2714,18862 2754,18878 2811,18904 2837,18914 2846,18930 2841,18953 2834,18976 2815,18989 2786,18989 2642,18989 2501,18987 2361,18984 2220,18981 2078,18976 1933,18969 1904,18966 1887,18950 1885,18927 1884,18901 1899,18886 1928,18878 1954,18872 1982,18869 2008,18869 2039,18866 2067,18862 2094,18857 2120,18852 2140,18836 2154,18810 2163,18790 2177,18731 2194,18635 2211,18540 2229,18421 2249,18283 2269,18141 2289,17987 2310,17815 2333,17644 2353,17474 2373,17306 2393,17136 2411,16975 2428,16824 2445,16671 2459,16541 2472,16435 2479,16392 2483,16354 2488,16319 2491,16285 2494,16256 2497,16236 2500,16216 2512,16204 2535,16197 2555,16190 2576,16194 2596,16207 2636,16241 2696,16319 2774,16440 2850,16564 2938,16709 3034,16876 3130,17044 3230,17222 3332,17410 3435,17600 3531,17774 3620,17933 3690,18059 3741,18156 3775,18222 3808,18289 3839,18346 3869,18396 3946,18257 4019,18117 4090,17982 4162,17846 4234,17708 4307,17569 4356,17474 4408,17378 4459,17283 4509,17188 4561,17093 4610,16998 4627,16968 4645,16934 4665,16899 4685,16862 4702,16829 4720,16798 4769,16703 4823,16605 4878,16507 4934,16411 4997,16313 5063,16216 5080,16201 5100,16195 5124,16200 5150,16204 5164,16216 5167,16236 5216,16562 5262,16885 5302,17206 5305,17232 5306,17263 5309,17295 5311,17329 5314,17369 5321,17416 5332,17517 5341,17636 5354,17771 5366,17904 5380,18037 5398,18167 5416,18297 5436,18415 5458,18520 5479,18626 5505,18699 5534,18739 5565,18787 5600,18816 5641,18829 5684,18843 5724,18852 5764,18858 5791,18866 5813,18869 5831,18866 5848,18865 5883,18875 5932,18898 L 5912,18984 Z"/>
       </g>
      </g>
      <g class="com.sun.star.drawing.ClosedBezierShape">
       <g id="id4">
        <rect class="BoundingBox" stroke="none" fill="none" x="6288" y="16198" width="3022" height="2783"/>
        <path fill="rgb(251,199,149)" stroke="none" d="M 7687,16895 C 7632,17039 7580,17178 7535,17310 7490,17440 7435,17581 7372,17729 L 8005,17729 7687,16895 Z M 9069,18974 C 8991,18977 8910,18980 8827,18980 8766,18980 8709,18979 8653,18977 8596,18976 8538,18973 8478,18970 8452,18970 8434,18962 8426,18945 8417,18928 8423,18911 8443,18895 L 8489,18841 C 8422,18685 8357,18535 8295,18393 8232,18250 8164,18101 8096,17943 L 7293,17943 C 7267,17997 7236,18067 7204,18149 7170,18232 7137,18315 7103,18397 7071,18480 7043,18558 7022,18628 7001,18700 6990,18751 6990,18780 6990,18817 7011,18841 7054,18853 7097,18864 7135,18873 7169,18879 7201,18884 7218,18899 7215,18928 7215,18956 7196,18970 7163,18970 L 6289,18954 6309,18864 C 6341,18875 6376,18873 6413,18859 6450,18847 6485,18827 6517,18798 6551,18769 6581,18737 6609,18700 6638,18665 6659,18631 6676,18601 6742,18443 6811,18280 6883,18111 6953,17942 7022,17780 7089,17619 7186,17385 7282,17151 7380,16918 7478,16687 7578,16455 7678,16222 7690,16199 7716,16193 7753,16202 7776,16213 7799,16234 7822,16268 7846,16300 7869,16338 7892,16380 7915,16421 7936,16465 7956,16511 7976,16557 7995,16600 8010,16635 L 8010,16631 C 8021,16654 8030,16675 8036,16693 8042,16710 8048,16725 8056,16735 L 8056,16730 8275,17243 C 8377,17481 8481,17722 8585,17965 8689,18212 8804,18448 8931,18676 8971,18752 9026,18801 9095,18826 9165,18849 9236,18864 9309,18870 L 9309,18959 C 9228,18967 9150,18971 9069,18974 Z"/>
       </g>
      </g>
      <g class="com.sun.star.drawing.ClosedBezierShape">
       <g id="id5">
        <rect class="BoundingBox" stroke="none" fill="none" x="9608" y="16256" width="3082" height="2793"/>
        <path fill="rgb(251,199,149)" stroke="none" d="M 11200,16856 C 11173,16772 11130,16697 11076,16634 11021,16571 10955,16521 10879,16483 10804,16444 10717,16426 10624,16426 10544,16426 10468,16435 10396,16455 L 10396,17653 C 10451,17661 10511,17666 10572,17669 10633,17673 10691,17673 10748,17673 10913,17673 11035,17624 11119,17525 11202,17425 11243,17291 11243,17122 11243,17029 11228,16940 11200,16856 Z M 12282,19048 C 12166,19048 12062,19030 11968,18993 11875,18956 11791,18909 11714,18849 11638,18790 11567,18722 11502,18646 11434,18569 11370,18491 11307,18412 11251,18338 11194,18269 11139,18202 11081,18136 11023,18074 10960,18022 10902,17972 10830,17941 10740,17930 10653,17918 10572,17912 10500,17912 10474,17912 10456,17912 10448,17910 10439,17909 10422,17910 10396,17912 L 10396,18571 C 10396,18583 10397,18604 10402,18632 10408,18661 10413,18690 10420,18722 10427,18753 10434,18782 10442,18806 10451,18831 10459,18846 10465,18849 10474,18855 10489,18858 10509,18858 10532,18858 10552,18860 10569,18863 10599,18868 10630,18872 10662,18877 10693,18881 10722,18894 10748,18914 10774,18927 10786,18944 10774,18964 10763,18984 10743,18993 10714,18993 10544,18993 10376,18993 10209,18990 10041,18990 9874,18984 9704,18973 9675,18970 9658,18955 9657,18932 9655,18906 9669,18891 9700,18883 9753,18878 9795,18869 9827,18862 9857,18854 9882,18840 9899,18820 9914,18800 9926,18771 9931,18733 9935,18695 9937,18644 9937,18580 L 9937,16559 C 9937,16481 9920,16432 9885,16415 9851,16400 9816,16389 9779,16386 9743,16383 9710,16377 9684,16371 9657,16365 9637,16348 9620,16322 9606,16305 9605,16290 9614,16276 9625,16264 9643,16256 9669,16256 L 9744,16256 9859,16256 C 9899,16256 9937,16259 9978,16261 10030,16265 10081,16267 10127,16267 L 10275,16267 10381,16267 C 10413,16267 10445,16265 10477,16264 10509,16262 10543,16261 10580,16261 10702,16261 10833,16269 10966,16282 11101,16295 11223,16325 11332,16371 11442,16417 11532,16486 11603,16575 11675,16665 11710,16786 11710,16937 11710,17015 11696,17090 11667,17167 11639,17243 11603,17315 11558,17385 11514,17454 11463,17520 11410,17581 11355,17644 11298,17699 11243,17748 11292,17797 11341,17851 11390,17904 11437,17959 11486,18016 11535,18077 11615,18175 11699,18272 11789,18372 11878,18471 11971,18560 12068,18641 12164,18719 12262,18783 12362,18831 12461,18880 12560,18898 12660,18883 L 12689,18969 C 12564,19022 12427,19048 12282,19048 Z"/>
       </g>
      </g>
      <g class="com.sun.star.drawing.ClosedBezierShape">
       <g id="id6">
        <rect class="BoundingBox" stroke="none" fill="none" x="12953" y="16271" width="1095" height="2736"/>
        <path fill="rgb(251,199,149)" stroke="none" d="M 14006,18993 C 13947,18990 13889,18990 13830,18993 13772,18996 13711,18996 13647,18993 L 13458,18989 C 13432,18989 13398,18990 13358,18993 13318,18996 13277,18999 13231,19004 13187,19007 13144,19007 13103,19005 13060,19005 13029,18999 13005,18989 12976,18979 12968,18958 12980,18927 12994,18895 13015,18883 13046,18889 13061,18895 13075,18897 13087,18892 13100,18886 13109,18883 13115,18883 13141,18883 13164,18874 13182,18852 13201,18829 13214,18802 13225,18770 13234,18736 13242,18704 13247,18670 13251,18637 13254,18608 13254,18580 L 13254,16555 C 13254,16489 13227,16441 13173,16414 13118,16386 13060,16368 13000,16362 12968,16357 12951,16343 12953,16319 12954,16293 12973,16279 13005,16276 13086,16270 13164,16270 13245,16276 13323,16284 13401,16287 13478,16287 13554,16287 13629,16284 13703,16276 13777,16270 13850,16270 13927,16276 13957,16279 13973,16293 13974,16316 13976,16339 13962,16354 13933,16362 13866,16371 13809,16386 13763,16406 13716,16426 13693,16475 13693,16555 L 13693,18566 C 13693,18578 13696,18598 13702,18626 13707,18652 13711,18679 13719,18710 13725,18739 13734,18768 13743,18794 13754,18820 13762,18840 13768,18849 13778,18852 13794,18855 13812,18858 13832,18863 13850,18863 13867,18863 13904,18863 13936,18866 13965,18872 13993,18877 14020,18891 14046,18914 L 14006,18993 Z"/>
       </g>
      </g>
      <g class="com.sun.star.drawing.ClosedBezierShape">
       <g id="id7">
        <rect class="BoundingBox" stroke="none" fill="none" x="14319" y="16199" width="3289" height="2832"/>
        <path fill="rgb(251,199,149)" stroke="none" d="M 17606,16357 C 17575,16360 17551,16365 17531,16373 L 17535,16373 C 17497,16382 17456,16396 17416,16412 17376,16429 17356,16455 17356,16492 L 17356,16804 C 17356,16905 17358,17006 17361,17107 17361,17205 17363,17309 17364,17424 17366,17537 17367,17641 17367,17734 17367,17947 17364,18157 17356,18363 17350,18572 17337,18780 17318,18990 17314,19010 17303,19022 17283,19027 17263,19031 17243,19030 17222,19019 16851,18741 16501,18444 16172,18125 15842,17809 15517,17490 15199,17168 L 15205,17168 14945,16914 C 14942,16943 14940,16974 14940,17003 L 14940,17098 C 14940,17223 14943,17349 14948,17471 14953,17594 14959,17718 14965,17843 14972,17967 14977,18089 14980,18212 14983,18334 14985,18461 14985,18586 14985,18643 14991,18689 15000,18724 15011,18759 15025,18783 15043,18800 15061,18817 15081,18828 15103,18836 15124,18842 15147,18846 15170,18851 15199,18857 15231,18863 15263,18868 15297,18872 15329,18886 15358,18909 15384,18923 15392,18940 15384,18959 15373,18979 15353,18990 15323,18990 15266,18985 15208,18985 15150,18987 15089,18989 15032,18990 14976,18990 L 14801,18990 C 14724,18990 14647,18987 14574,18984 14499,18981 14427,18972 14356,18955 14326,18947 14315,18932 14320,18904 14324,18878 14341,18865 14372,18865 L 14431,18865 C 14488,18872 14535,18857 14575,18823 14615,18788 14635,18738 14635,18672 L 14635,16322 C 14635,16296 14644,16273 14661,16256 14676,16238 14693,16221 14710,16207 14719,16201 14733,16198 14748,16201 14762,16203 14773,16207 14780,16212 15162,16565 15540,16919 15915,17275 16290,17630 16662,17991 17034,18356 17037,18253 17037,18152 17034,18056 17031,17958 17027,17857 17023,17754 17018,17672 17012,17583 17009,17491 17006,17398 17003,17311 17003,17228 17003,17174 17004,17122 17006,17073 17008,17023 17009,16972 17009,16919 L 17009,16616 C 17009,16562 17003,16521 16989,16489 16975,16458 16960,16435 16940,16420 16919,16405 16897,16394 16874,16389 16851,16385 16829,16380 16804,16377 16741,16371 16691,16356 16651,16333 16628,16322 16622,16308 16631,16287 16640,16267 16660,16258 16686,16258 L 16865,16253 C 16988,16250 17109,16250 17228,16256 17347,16261 17467,16267 17586,16273 L 17606,16357 Z"/>
       </g>
      </g>
      <g class="com.sun.star.drawing.ClosedBezierShape">
       <g id="id8">
        <rect class="BoundingBox" stroke="none" fill="none" x="17890" y="16252" width="3234" height="2739"/>
        <path fill="rgb(251,199,149)" stroke="none" d="M 21086,18989 C 21024,18984 20960,18984 20899,18985 20836,18987 20776,18989 20717,18989 L 20469,18989 C 20412,18989 20340,18987 20254,18984 20169,18981 20101,18967 20056,18944 L 20111,18863 C 20137,18878 20155,18883 20164,18883 20192,18883 20213,18874 20233,18852 20250,18829 20265,18802 20276,18770 20288,18736 20296,18702 20302,18667 20306,18632 20310,18603 20310,18575 L 20310,17584 18678,17584 18678,18566 C 18678,18692 18700,18777 18743,18825 18786,18871 18871,18891 18997,18883 L 19001,18973 C 18916,18976 18831,18979 18750,18981 18669,18982 18588,18984 18504,18984 18418,18984 18334,18982 18250,18981 18167,18979 18083,18976 17998,18973 17964,18973 17946,18961 17942,18933 17939,18907 17955,18891 17987,18883 18040,18874 18083,18865 18114,18857 18146,18849 18169,18834 18186,18811 18203,18791 18213,18762 18218,18725 18224,18689 18226,18638 18226,18575 L 18226,16555 C 18226,16478 18207,16432 18172,16415 18135,16400 18099,16389 18062,16386 18028,16383 17998,16377 17970,16371 17941,16365 17920,16348 17903,16322 17889,16305 17887,16290 17898,16276 17907,16264 17926,16256 17953,16256 18111,16256 18273,16258 18435,16259 18597,16261 18758,16269 18917,16282 18951,16285 18966,16299 18965,16327 18963,16353 18946,16366 18911,16366 18856,16369 18802,16386 18752,16414 18703,16441 18678,16487 18678,16550 L 18678,17376 20310,17376 20310,16555 C 20310,16515 20303,16484 20291,16461 20280,16438 20265,16420 20247,16406 20228,16392 20209,16385 20187,16380 20166,16377 20146,16377 20126,16377 20086,16369 20051,16365 20023,16362 19994,16357 19978,16337 19971,16302 19964,16269 19982,16252 20025,16252 20189,16252 20351,16253 20513,16256 20675,16261 20836,16267 20998,16276 21031,16279 21048,16293 21050,16316 21051,16339 21036,16354 21002,16362 20937,16371 20882,16386 20833,16406 20785,16426 20761,16474 20761,16550 L 20761,18566 C 20761,18578 20764,18600 20767,18627 20770,18655 20775,18686 20781,18718 20788,18748 20796,18777 20804,18805 20813,18831 20822,18846 20831,18849 20848,18852 20865,18854 20883,18857 20902,18858 20919,18858 20935,18858 20966,18858 20998,18862 21030,18866 21060,18872 21091,18886 21122,18909 L 21086,18989 Z"/>
       </g>
      </g>
      <g class="com.sun.star.drawing.ClosedBezierShape">
       <g id="id9">
        <rect class="BoundingBox" stroke="none" fill="none" x="21373" y="16217" width="1888" height="2764"/>
        <path fill="rgb(251,199,149)" stroke="none" d="M 23154,18950 L 23115,18970 C 23094,18977 23057,18980 22999,18980 22944,18980 22883,18979 22818,18977 22754,18976 22693,18974 22635,18971 22577,18971 22535,18970 22512,18970 22459,18970 22407,18971 22353,18971 22301,18974 22248,18974 22194,18974 22075,18974 21955,18976 21836,18977 21717,18979 21598,18977 21482,18970 21451,18967 21437,18951 21439,18922 21440,18895 21457,18879 21486,18879 21580,18876 21641,18847 21671,18792 21703,18739 21717,18667 21717,18576 L 21717,16537 C 21717,16479 21701,16442 21668,16424 21636,16407 21603,16393 21566,16387 21540,16381 21512,16374 21483,16367 21456,16361 21428,16349 21402,16332 21376,16320 21367,16303 21378,16283 21387,16262 21407,16253 21437,16253 21466,16253 21506,16254 21554,16256 21601,16257 21656,16257 21717,16257 21813,16262 21917,16263 22030,16265 22142,16266 22257,16268 22373,16268 22540,16268 22690,16265 22826,16257 22962,16251 23053,16239 23100,16222 23123,16216 23143,16217 23158,16228 23175,16237 23183,16251 23178,16268 23172,16331 23163,16389 23149,16441 23135,16494 23123,16548 23109,16600 23103,16623 23097,16646 23094,16666 23091,16686 23086,16706 23080,16725 23072,16748 23053,16759 23019,16759 22987,16759 22968,16747 22965,16721 22962,16664 22948,16618 22926,16586 22901,16553 22872,16528 22835,16508 22800,16491 22757,16479 22711,16471 22665,16465 22618,16462 22572,16462 22546,16462 22520,16462 22496,16465 22471,16465 22445,16467 22419,16467 22395,16467 22370,16467 22344,16468 22317,16470 22291,16471 22263,16471 L 22174,16471 22174,17422 22771,17422 C 22788,17422 22809,17416 22835,17403 22863,17393 22890,17382 22921,17371 L 22915,17371 C 22941,17359 22965,17339 22987,17316 23008,17293 23030,17278 23049,17272 23072,17266 23091,17267 23106,17279 23121,17292 23128,17305 23124,17322 23117,17365 23112,17417 23106,17475 23101,17535 23095,17587 23089,17630 23083,17670 23077,17709 23069,17749 23063,17789 23057,17833 23049,17879 23046,17896 23034,17907 23014,17913 22994,17919 22976,17916 22961,17904 22921,17881 22901,17864 22903,17856 22904,17847 22904,17836 22901,17818 22890,17789 22880,17761 22869,17735 22857,17708 22846,17691 22835,17685 22820,17671 22786,17660 22736,17653 22687,17645 22632,17639 22569,17634 22508,17631 22448,17630 22388,17630 L 22240,17630 22174,17630 22174,18596 C 22228,18670 22303,18723 22399,18755 22494,18789 22586,18806 22672,18806 22777,18806 22875,18780 22965,18728 23054,18676 23115,18593 23144,18477 23147,18468 23155,18460 23169,18454 23183,18449 23195,18448 23209,18449 23221,18451 23235,18457 23245,18465 23258,18472 23262,18483 23259,18492 L 23154,18950 Z"/>
       </g>
      </g>
      <g class="com.sun.star.drawing.ClosedBezierShape">
       <g id="id10">
        <rect class="BoundingBox" stroke="none" fill="none" x="23467" y="16271" width="1095" height="2736"/>
        <path fill="rgb(251,199,149)" stroke="none" d="M 24520,18993 C 24461,18990 24401,18990 24343,18993 24285,18996 24225,18996 24162,18993 L 23974,18989 C 23947,18989 23913,18990 23873,18993 23835,18996 23792,18999 23748,19004 23702,19007 23659,19007 23618,19005 23576,19005 23544,18999 23520,18989 23492,18979 23483,18958 23497,18927 23509,18895 23530,18883 23561,18889 23578,18895 23592,18897 23602,18892 23615,18886 23624,18883 23630,18883 23656,18883 23679,18874 23697,18852 23716,18829 23729,18802 23740,18770 23749,18736 23757,18704 23762,18670 23766,18637 23769,18608 23769,18580 L 23769,16555 C 23769,16489 23743,16441 23688,16414 23633,16386 23575,16368 23515,16362 23483,16357 23465,16343 23468,16319 23470,16293 23488,16279 23520,16276 23601,16270 23679,16270 23760,16276 23840,16284 23916,16287 23994,16287 24069,16287 24144,16284 24216,16276 24289,16270 24364,16270 24441,16276 24470,16279 24487,16293 24487,16316 24490,16339 24476,16354 24445,16362 24380,16371 24323,16386 24277,16406 24231,16426 24207,16475 24207,16555 L 24207,18566 C 24207,18578 24210,18598 24214,18626 24219,18652 24225,18679 24231,18710 24239,18739 24247,18768 24256,18794 24266,18820 24274,18840 24282,18849 24291,18852 24306,18855 24326,18858 24346,18863 24364,18863 24381,18863 24418,18863 24450,18866 24478,18872 24507,18877 24534,18891 24560,18914 L 24520,18993 Z"/>
       </g>
      </g>
      <g class="com.sun.star.drawing.ClosedBezierShape">
       <g id="id11">
        <rect class="BoundingBox" stroke="none" fill="none" x="24827" y="16256" width="3084" height="2793"/>
        <path fill="rgb(251,199,149)" stroke="none" d="M 26419,16856 C 26391,16772 26350,16697 26295,16634 26240,16571 26173,16521 26096,16483 26020,16444 25936,16426 25842,16426 25763,16426 25686,16435 25614,16455 L 25614,17653 C 25671,17661 25729,17666 25790,17669 25852,17673 25910,17673 25968,17673 26130,17673 26255,17624 26336,17525 26419,17425 26462,17291 26462,17122 26462,17029 26448,16940 26419,16856 Z M 27501,19048 C 27384,19048 27280,19030 27187,18993 27095,18956 27009,18909 26933,18849 26858,18790 26786,18722 26720,18646 26653,18569 26589,18491 26526,18412 26469,18338 26414,18269 26356,18202 26301,18136 26240,18074 26176,18022 26119,17972 26048,17941 25959,17930 25872,17918 25792,17912 25719,17912 25691,17912 25674,17912 25667,17910 25657,17909 25640,17910 25614,17912 L 25614,18571 C 25614,18583 25616,18604 25622,18632 25627,18661 25633,18690 25639,18722 25645,18753 25653,18782 25662,18806 25670,18831 25677,18846 25683,18849 25694,18855 25708,18858 25729,18858 25752,18858 25772,18860 25789,18863 25818,18868 25849,18872 25879,18877 25911,18881 25940,18894 25968,18914 25994,18927 26002,18944 25991,18964 25982,18984 25962,18993 25933,18993 25763,18993 25595,18993 25428,18990 25261,18990 25091,18984 24923,18973 24894,18970 24877,18955 24875,18932 24874,18906 24889,18891 24917,18883 24970,18878 25013,18869 25044,18862 25076,18854 25100,18840 25117,18820 25134,18800 25145,18771 25149,18733 25154,18695 25157,18644 25157,18580 L 25157,16559 C 25157,16481 25140,16432 25105,16415 25070,16400 25033,16389 24998,16386 24961,16383 24929,16377 24903,16371 24877,16365 24854,16348 24839,16322 24825,16305 24823,16290 24834,16276 24843,16264 24862,16256 24889,16256 L 24963,16256 25077,16256 C 25117,16256 25157,16259 25197,16261 25249,16265 25299,16267 25345,16267 L 25495,16267 25599,16267 C 25633,16267 25665,16265 25697,16264 25728,16262 25761,16261 25798,16261 25921,16261 26049,16269 26186,16282 26319,16295 26442,16325 26550,16371 26661,16417 26751,16486 26821,16575 26893,16665 26928,16786 26928,16937 26928,17015 26915,17090 26887,17167 26858,17243 26821,17315 26777,17385 26732,17454 26682,17520 26627,17581 26573,17644 26518,17699 26462,17748 26511,17797 26560,17851 26607,17904 26656,17959 26705,18016 26754,18077 26835,18175 26919,18272 27008,18372 27098,18471 27190,18560 27286,18641 27383,18719 27481,18783 27580,18831 27680,18880 27779,18898 27879,18883 L 27909,18969 C 27782,19022 27646,19048 27501,19048 Z"/>
       </g>
      </g>
      <g class="com.sun.star.drawing.ClosedBezierShape">
       <g id="id12">
        <rect class="BoundingBox" stroke="none" fill="none" x="27578" y="16168" width="3235" height="2870"/>
        <path fill="rgb(251,199,149)" stroke="none" d="M 30280,17194 C 30223,17037 30141,16899 30037,16778 29932,16660 29807,16565 29659,16495 29512,16426 29348,16391 29169,16391 29004,16391 28849,16417 28708,16470 28569,16524 28447,16599 28346,16697 28245,16795 28167,16913 28110,17049 28053,17188 28026,17343 28026,17514 28026,17690 28055,17858 28115,18016 28174,18175 28259,18316 28366,18437 28473,18558 28603,18655 28751,18727 28901,18799 29066,18834 29249,18834 29417,18834 29570,18806 29709,18753 29845,18698 29963,18617 30061,18516 30159,18415 30234,18294 30287,18154 30341,18013 30367,17858 30367,17688 30367,17517 30338,17352 30280,17194 Z M 30662,18278 C 30566,18446 30437,18585 30280,18699 30122,18813 29946,18898 29749,18953 29550,19010 29353,19037 29154,19037 28955,19037 28760,19001 28569,18927 28379,18852 28211,18750 28066,18619 27919,18490 27801,18336 27712,18158 27622,17982 27578,17789 27578,17584 27578,17358 27627,17159 27725,16983 27822,16807 27949,16659 28107,16538 28265,16417 28444,16325 28644,16261 28845,16198 29050,16168 29259,16168 29463,16168 29660,16209 29847,16291 30035,16374 30200,16486 30343,16625 30485,16764 30598,16926 30682,17112 30769,17298 30812,17494 30812,17699 30812,17918 30763,18111 30662,18278 Z"/>
       </g>
      </g>
      <g class="com.sun.star.drawing.ClosedBezierShape">
       <g id="id13">
        <rect class="BoundingBox" stroke="none" fill="none" x="31021" y="15584" width="513" height="1080"/>
        <path fill="rgb(251,199,149)" stroke="none" d="M 31493,16075 C 31467,16147 31433,16219 31393,16288 31352,16358 31308,16424 31259,16488 31212,16551 31166,16603 31123,16646 31100,16664 31075,16667 31051,16657 31025,16646 31016,16629 31023,16606 31027,16597 31031,16579 31039,16553 31045,16525 31054,16497 31068,16467 L 31063,16473 C 31086,16397 31108,16318 31128,16239 31147,16159 31158,16081 31158,16006 31158,15879 31124,15765 31059,15662 31045,15645 31042,15630 31051,15618 31059,15603 31077,15595 31103,15592 L 31172,15586 C 31268,15578 31354,15600 31425,15648 31496,15694 31532,15769 31532,15876 31532,15936 31520,16002 31493,16075 Z"/>
       </g>
      </g>
      <g class="com.sun.star.drawing.ClosedBezierShape">
       <g id="id14">
        <rect class="BoundingBox" stroke="none" fill="none" x="31724" y="16192" width="1670" height="2846"/>
        <path fill="rgb(251,199,149)" stroke="none" d="M 33277,18591 C 33202,18687 33107,18768 32995,18834 32882,18901 32760,18950 32628,18985 32498,19021 32378,19037 32272,19037 32218,19037 32160,19033 32098,19024 32035,19013 31975,18995 31920,18969 31867,18941 31819,18906 31781,18862 31744,18817 31724,18759 31724,18690 31724,18656 31729,18623 31736,18589 31744,18554 31755,18517 31770,18482 31785,18443 31796,18397 31799,18340 31799,18327 31805,18317 31819,18313 31831,18308 31845,18305 31859,18305 31871,18305 31885,18308 31896,18316 31908,18322 31914,18331 31914,18345 L 31914,18405 C 31906,18475 31920,18537 31951,18589 31981,18640 32024,18683 32078,18718 32130,18753 32189,18777 32254,18794 32318,18811 32382,18820 32445,18820 32501,18820 32559,18811 32623,18791 32689,18774 32749,18748 32806,18715 32862,18681 32908,18641 32945,18591 32980,18540 33000,18482 33000,18415 33000,18354 32981,18296 32946,18236 32913,18175 32868,18115 32813,18051 32758,17988 32697,17927 32628,17867 32561,17808 32492,17748 32420,17688 32341,17623 32263,17555 32185,17485 32107,17416 32035,17344 31972,17274 31909,17202 31859,17130 31822,17060 31784,16989 31764,16914 31764,16839 31764,16715 31804,16614 31880,16530 31958,16448 32055,16380 32166,16331 32280,16282 32399,16246 32524,16224 32648,16203 32755,16192 32844,16192 32988,16192 33127,16207 33263,16236 33300,16244 33314,16261 33307,16287 L 33307,16426 C 33307,16492 33304,16559 33300,16628 33295,16695 33272,16750 33232,16793 33213,16810 33191,16816 33165,16809 33141,16801 33128,16787 33128,16764 33128,16700 33115,16646 33087,16599 33058,16553 33021,16513 32977,16481 32933,16448 32882,16423 32827,16406 32772,16389 32717,16380 32662,16380 32605,16380 32550,16391 32495,16409 32437,16426 32388,16452 32345,16486 32303,16518 32267,16559 32241,16610 32214,16660 32202,16715 32202,16778 32202,16836 32217,16891 32249,16948 32281,17004 32321,17060 32373,17115 32425,17170 32483,17222 32547,17271 32610,17321 32671,17369 32731,17416 32807,17474 32885,17535 32965,17597 33044,17658 33116,17724 33179,17793 33242,17863 33292,17936 33332,18011 33373,18089 33392,18169 33392,18256 33392,18382 33353,18494 33277,18591 Z"/>
       </g>
      </g>
      <g class="com.sun.star.drawing.ClosedBezierShape">
       <g id="id15">
        <rect class="BoundingBox" stroke="none" fill="none" x="8738" y="13167" width="1803" height="1633"/>
        <path fill="rgb(251,199,149)" stroke="none" d="M 9668,13517 C 9651,13468 9626,13426 9594,13389 9562,13352 9525,13323 9479,13300 9435,13277 9386,13266 9331,13266 9285,13266 9241,13273 9198,13283 L 9198,13985 C 9231,13990 9265,13993 9302,13994 9337,13997 9372,13997 9404,13997 9499,13997 9571,13968 9620,13910 9668,13851 9692,13771 9692,13672 9692,13618 9683,13566 9668,13517 Z M 10301,14799 C 10233,14799 10172,14788 10117,14767 10063,14744 10013,14716 9970,14681 9924,14648 9882,14608 9842,14562 9804,14519 9767,14473 9729,14427 9697,14383 9663,14343 9631,14305 9597,14265 9562,14231 9527,14201 9493,14172 9452,14153 9400,14147 9348,14140 9302,14137 9259,14137 9244,14137 9233,14135 9228,14135 9224,14133 9213,14135 9198,14137 L 9198,14519 C 9198,14528 9199,14539 9202,14556 9205,14573 9209,14589 9213,14608 9216,14626 9221,14643 9225,14658 9230,14672 9235,14681 9239,14681 9245,14686 9253,14687 9265,14687 9279,14687 9291,14689 9299,14690 9317,14692 9336,14695 9354,14698 9372,14701 9389,14709 9404,14719 9420,14727 9424,14738 9418,14749 9414,14761 9401,14767 9384,14767 9285,14767 9187,14765 9089,14764 8991,14764 8893,14761 8794,14755 8777,14753 8768,14744 8768,14730 8766,14715 8774,14707 8791,14703 8823,14698 8847,14695 8866,14689 8884,14684 8898,14677 8909,14664 8918,14652 8924,14635 8927,14614 8930,14591 8932,14562 8932,14525 L 8932,13344 C 8932,13299 8921,13271 8901,13260 8881,13251 8860,13245 8838,13243 8817,13242 8798,13239 8783,13234 8768,13231 8756,13222 8745,13205 8737,13196 8737,13188 8742,13179 8748,13172 8760,13167 8774,13167 L 8818,13167 8884,13167 C 8909,13167 8932,13168 8955,13170 8985,13173 9014,13173 9042,13173 L 9129,13173 9190,13173 C 9209,13173 9227,13173 9247,13173 9265,13172 9285,13170 9305,13170 9377,13170 9452,13175 9530,13182 9608,13190 9680,13208 9744,13234 9807,13262 9860,13302 9904,13354 9946,13406 9967,13476 9967,13566 9967,13609 9958,13655 9941,13698 9926,13744 9904,13787 9876,13826 9850,13870 9821,13907 9788,13944 9756,13979 9724,14011 9692,14040 9721,14069 9750,14101 9778,14132 9805,14164 9833,14198 9862,14233 9912,14288 9961,14346 10013,14404 10065,14461 10120,14513 10175,14560 10232,14606 10288,14643 10346,14672 10405,14700 10463,14710 10521,14703 L 10539,14752 C 10464,14782 10386,14799 10301,14799 Z"/>
       </g>
      </g>
      <g class="com.sun.star.drawing.ClosedBezierShape">
       <g id="id16">
        <rect class="BoundingBox" stroke="none" fill="none" x="10693" y="13144" width="1103" height="1615"/>
        <path fill="rgb(251,199,149)" stroke="none" d="M 11733,14739 L 11709,14752 C 11698,14756 11675,14758 11643,14758 11611,14758 11574,14756 11535,14756 11498,14755 11461,14755 11428,14753 11394,14753 11371,14752 11356,14752 11325,14752 11295,14753 11264,14753 11232,14755 11201,14755 11171,14755 11102,14755 11031,14755 10961,14756 10892,14756 10823,14756 10756,14752 10739,14750 10730,14741 10732,14724 10733,14707 10742,14700 10759,14700 10813,14698 10848,14681 10866,14649 10883,14617 10892,14574 10892,14522 L 10892,13331 C 10892,13297 10883,13276 10865,13265 10846,13254 10826,13248 10805,13243 10790,13239 10773,13236 10758,13231 10741,13228 10724,13222 10710,13211 10693,13204 10690,13193 10695,13182 10701,13170 10713,13164 10730,13164 10747,13164 10770,13165 10797,13167 10825,13167 10857,13167 10892,13167 10949,13170 11010,13172 11076,13173 11140,13173 11207,13173 11276,13173 11373,13173 11460,13172 11539,13167 11620,13164 11674,13158 11701,13147 11715,13144 11727,13144 11735,13150 11745,13156 11750,13164 11747,13173 11744,13211 11738,13245 11730,13276 11723,13306 11715,13338 11707,13369 11703,13381 11701,13395 11698,13406 11697,13418 11693,13430 11689,13441 11686,13455 11674,13461 11655,13461 11635,13461 11625,13453 11623,13438 11620,13404 11612,13378 11600,13360 11585,13340 11568,13326 11546,13315 11524,13303 11500,13297 11472,13292 11446,13289 11419,13286 11391,13286 11376,13286 11360,13288 11347,13289 11331,13289 11316,13289 11301,13289 11287,13289 11273,13291 11258,13291 11243,13292 11226,13292 11212,13292 L 11160,13292 11160,13849 11507,13849 C 11518,13849 11530,13846 11546,13838 11562,13832 11580,13826 11597,13820 L 11594,13820 C 11609,13812 11623,13801 11635,13789 11649,13774 11660,13766 11672,13762 11686,13759 11697,13760 11706,13766 11715,13774 11718,13782 11715,13791 11712,13817 11709,13847 11706,13881 11703,13916 11700,13945 11695,13971 11692,13994 11687,14017 11683,14040 11680,14063 11675,14089 11672,14117 11670,14126 11663,14132 11652,14137 11640,14141 11629,14138 11620,14130 11597,14117 11585,14107 11586,14103 11588,14098 11586,14091 11585,14081 11580,14063 11573,14048 11566,14031 11559,14017 11554,14006 11546,14002 11535,13996 11516,13988 11487,13984 11458,13979 11426,13976 11389,13974 11354,13971 11319,13971 11284,13971 L 11197,13971 11160,13971 11160,14534 C 11191,14577 11233,14608 11290,14626 11345,14646 11400,14655 11449,14655 11512,14655 11571,14640 11623,14611 11675,14580 11709,14533 11727,14464 11730,14459 11733,14455 11741,14452 11750,14449 11758,14447 11764,14449 11773,14450 11779,14453 11787,14458 11793,14461 11796,14467 11793,14473 L 11733,14739 Z"/>
       </g>
      </g>
      <g class="com.sun.star.drawing.ClosedBezierShape">
       <g id="id17">
        <rect class="BoundingBox" stroke="none" fill="none" x="11917" y="13130" width="977" height="1664"/>
        <path fill="rgb(251,199,149)" stroke="none" d="M 12825,14531 C 12781,14588 12726,14635 12660,14674 12594,14712 12522,14741 12446,14762 12371,14782 12300,14793 12239,14793 12207,14793 12174,14790 12136,14784 12099,14778 12064,14767 12033,14752 12001,14736 11973,14715 11952,14689 11929,14663 11917,14629 11917,14589 11917,14570 11920,14550 11926,14530 11929,14510 11937,14488 11943,14467 11954,14446 11960,14418 11961,14386 11961,14378 11966,14372 11972,14369 11981,14368 11989,14366 11996,14366 12004,14366 12012,14368 12018,14372 12024,14375 12029,14381 12029,14389 L 12029,14424 C 12024,14464 12032,14499 12050,14530 12068,14560 12093,14585 12123,14606 12156,14626 12192,14640 12228,14651 12267,14660 12303,14664 12340,14664 12371,14664 12406,14660 12444,14649 12481,14637 12516,14623 12550,14603 12582,14585 12609,14560 12631,14531 12652,14502 12663,14469 12663,14430 12663,14395 12652,14360 12632,14325 12611,14291 12585,14254 12553,14218 12522,14181 12487,14146 12446,14108 12406,14074 12366,14039 12326,14004 12279,13966 12233,13926 12189,13885 12140,13845 12099,13802 12062,13762 12027,13719 11996,13678 11975,13637 11952,13594 11940,13551 11940,13508 11940,13436 11963,13375 12010,13328 12055,13280 12111,13240 12178,13211 12244,13182 12313,13162 12386,13149 12458,13136 12521,13130 12573,13130 12655,13130 12738,13138 12816,13156 12837,13161 12847,13170 12842,13185 L 12842,13266 C 12842,13306 12842,13344 12839,13384 12836,13424 12822,13456 12799,13482 12787,13491 12775,13493 12759,13490 12746,13487 12738,13478 12738,13464 12738,13427 12729,13395 12714,13369 12698,13341 12675,13317 12649,13299 12623,13280 12594,13265 12562,13254 12530,13245 12498,13240 12466,13240 12432,13240 12400,13245 12369,13257 12337,13268 12308,13282 12282,13302 12258,13320 12238,13344 12221,13374 12207,13403 12198,13436 12198,13473 12198,13505 12207,13539 12225,13571 12244,13605 12268,13637 12299,13669 12328,13701 12362,13730 12398,13759 12435,13788 12472,13817 12505,13845 12550,13878 12596,13915 12643,13950 12689,13986 12730,14025 12767,14065 12804,14105 12833,14150 12857,14195 12880,14239 12893,14286 12893,14337 12893,14410 12870,14475 12825,14531 Z"/>
       </g>
      </g>
      <g class="com.sun.star.drawing.ClosedBezierShape">
       <g id="id18">
        <rect class="BoundingBox" stroke="none" fill="none" x="13011" y="13134" width="1524" height="1631"/>
        <path fill="rgb(251,199,149)" stroke="none" d="M 14508,13460 C 14504,13474 14493,13481 14473,13481 14456,13481 14445,13474 14440,13460 14426,13392 14394,13350 14345,13331 14296,13313 14241,13304 14178,13304 L 14132,13304 C 14117,13304 14100,13305 14082,13307 14065,13308 14047,13310 14027,13310 L 13969,13310 C 13955,13310 13946,13311 13943,13311 13940,13314 13930,13313 13918,13310 L 13918,14512 C 13918,14518 13918,14530 13921,14546 13924,14562 13927,14579 13930,14599 13934,14616 13937,14634 13941,14648 13944,14662 13949,14671 13952,14673 L 13955,14673 C 13963,14677 13975,14680 13992,14680 14007,14683 14021,14685 14033,14686 14054,14688 14074,14691 14093,14696 14111,14700 14125,14709 14132,14725 14139,14735 14139,14743 14132,14751 14126,14758 14116,14763 14100,14763 14001,14763 13903,14761 13805,14760 13707,14758 13609,14755 13511,14751 13493,14751 13485,14743 13484,14728 13482,14712 13490,14703 13508,14699 13537,14694 13562,14691 13580,14686 13600,14680 13614,14673 13624,14660 13634,14648 13640,14634 13644,14613 13649,14593 13650,14564 13650,14530 L 13650,13307 13282,13307 C 13239,13307 13201,13319 13164,13347 13129,13374 13100,13406 13078,13446 13071,13458 13060,13461 13043,13460 13029,13458 13019,13452 13014,13440 13012,13434 13011,13421 13011,13402 13011,13377 13017,13348 13026,13314 13037,13282 13046,13250 13055,13221 13060,13212 13063,13201 13066,13190 13069,13178 13072,13166 13075,13155 13080,13146 13086,13140 13097,13137 13106,13134 13115,13134 13126,13137 13132,13143 13146,13149 13164,13154 13182,13158 13202,13163 13221,13166 13240,13171 13259,13175 13277,13178 13295,13180 13311,13181 13323,13181 L 14359,13181 C 14368,13181 14380,13180 14397,13175 14411,13172 14428,13167 14443,13163 L 14440,13163 C 14446,13161 14455,13158 14465,13157 14475,13155 14485,13155 14496,13152 14522,13149 14534,13158 14534,13178 L 14534,13224 C 14534,13305 14527,13383 14508,13460 Z"/>
       </g>
      </g>
      <g class="com.sun.star.drawing.ClosedBezierShape">
       <g id="id19">
        <rect class="BoundingBox" stroke="none" fill="none" x="14486" y="13133" width="1766" height="1626"/>
        <path fill="rgb(251,199,149)" stroke="none" d="M 15304,13540 C 15270,13624 15241,13706 15215,13782 15189,13861 15157,13942 15122,14028 L 15489,14028 15304,13540 Z M 16110,14755 C 16064,14756 16017,14758 15968,14758 15933,14758 15899,14756 15867,14756 15833,14755 15800,14753 15766,14752 15749,14752 15740,14747 15734,14738 15731,14727 15734,14718 15746,14709 L 15772,14677 C 15732,14586 15694,14499 15657,14415 15621,14332 15582,14245 15541,14153 L 15074,14153 C 15059,14184 15041,14225 15022,14273 15003,14322 14983,14369 14962,14418 14942,14467 14927,14511 14914,14553 14902,14594 14896,14623 14896,14641 14896,14663 14908,14677 14934,14684 14959,14690 14982,14695 15003,14700 15021,14701 15030,14710 15030,14727 15029,14744 15018,14752 15000,14752 L 14486,14742 14498,14690 C 14518,14697 14538,14695 14558,14687 14581,14681 14601,14667 14619,14652 14639,14635 14657,14617 14674,14594 14689,14574 14703,14554 14712,14536 14752,14444 14792,14349 14833,14251 14875,14153 14914,14057 14954,13965 15012,13827 15068,13690 15125,13554 15183,13418 15240,13283 15298,13147 15306,13135 15321,13130 15342,13136 15356,13141 15368,13155 15382,13173 15396,13193 15410,13214 15422,13239 15437,13263 15448,13289 15460,13315 15472,13343 15483,13367 15492,13389 L 15492,13386 C 15498,13400 15503,13412 15508,13421 15511,13433 15515,13441 15518,13447 L 15518,13444 15647,13742 C 15706,13884 15766,14025 15827,14167 15889,14308 15956,14447 16029,14580 16052,14625 16084,14654 16126,14667 16165,14681 16207,14689 16251,14693 L 16251,14746 C 16204,14750 16158,14753 16110,14755 Z"/>
       </g>
      </g>
      <g class="com.sun.star.drawing.ClosedBezierShape">
       <g id="id20">
        <rect class="BoundingBox" stroke="none" fill="none" x="16088" y="13166" width="1781" height="1636"/>
        <path fill="rgb(251,199,149)" stroke="none" d="M 17772,13260 C 17743,13277 17728,13303 17728,13341 L 17728,14147 C 17728,14247 17708,14337 17673,14417 17636,14496 17585,14565 17523,14623 17460,14680 17385,14724 17301,14755 17215,14785 17125,14801 17030,14801 16953,14801 16870,14790 16784,14770 16697,14750 16619,14719 16545,14678 16472,14637 16412,14583 16365,14519 16319,14456 16295,14381 16295,14294 L 16295,14296 C 16295,14279 16293,14262 16290,14247 16287,14231 16285,14218 16285,14205 L 16285,13344 C 16285,13297 16273,13268 16250,13257 16226,13248 16201,13242 16178,13240 16155,13237 16135,13234 16119,13231 16103,13230 16093,13219 16088,13196 16085,13178 16097,13167 16123,13167 L 16213,13167 C 16371,13167 16532,13173 16692,13185 16709,13188 16718,13196 16718,13211 16718,13225 16709,13233 16692,13234 16654,13239 16620,13247 16593,13260 16567,13271 16553,13300 16553,13341 L 16553,13797 C 16553,13878 16553,13953 16552,14031 16550,14106 16550,14182 16550,14259 16550,14326 16564,14386 16590,14436 16617,14487 16654,14531 16697,14565 16743,14600 16793,14626 16850,14645 16909,14661 16969,14671 17030,14671 17093,14671 17154,14661 17212,14643 17272,14625 17324,14597 17368,14562 17414,14525 17451,14482 17477,14430 17504,14378 17518,14317 17518,14247 L 17518,14023 C 17518,13948 17518,13873 17515,13794 17513,13721 17512,13646 17512,13571 L 17512,13344 C 17512,13321 17509,13303 17503,13289 17495,13277 17487,13266 17477,13260 17468,13253 17457,13248 17445,13247 17431,13245 17420,13242 17408,13240 17386,13239 17367,13237 17348,13234 17330,13231 17319,13219 17316,13196 17312,13178 17322,13167 17350,13167 17437,13167 17524,13168 17608,13170 17694,13173 17778,13176 17864,13182 L 17867,13231 C 17833,13236 17803,13245 17772,13260 Z"/>
       </g>
      </g>
      <g class="com.sun.star.drawing.ClosedBezierShape">
       <g id="id21">
        <rect class="BoundingBox" stroke="none" fill="none" x="18038" y="13167" width="1802" height="1633"/>
        <path fill="rgb(251,199,149)" stroke="none" d="M 18969,13517 C 18952,13468 18927,13426 18895,13389 18862,13352 18824,13323 18778,13300 18735,13277 18685,13266 18631,13266 18585,13266 18539,13273 18498,13283 L 18498,13985 C 18530,13990 18565,13993 18600,13994 18637,13997 18671,13997 18703,13997 18798,13997 18871,13968 18921,13910 18969,13851 18993,13771 18993,13672 18993,13618 18984,13566 18969,13517 Z M 19599,14799 C 19532,14799 19471,14788 19417,14767 19362,14744 19313,14716 19269,14681 19224,14648 19183,14608 19143,14562 19105,14519 19068,14473 19030,14427 18998,14383 18964,14343 18932,14305 18898,14265 18862,14231 18825,14201 18793,14172 18750,14153 18700,14147 18648,14140 18600,14137 18559,14137 18542,14137 18533,14135 18527,14135 18522,14133 18513,14135 18498,14137 L 18498,14519 C 18498,14528 18498,14539 18501,14556 18504,14573 18507,14589 18512,14608 18516,14626 18519,14643 18524,14658 18530,14672 18535,14681 18538,14681 18544,14686 18553,14687 18565,14687 18577,14687 18590,14689 18599,14690 18617,14692 18634,14695 18652,14698 18671,14701 18688,14709 18703,14719 18718,14727 18723,14738 18718,14749 18712,14761 18700,14767 18683,14767 18585,14767 18487,14765 18389,14764 18290,14764 18192,14761 18094,14755 18077,14753 18068,14744 18066,14730 18065,14715 18074,14707 18091,14703 18121,14698 18146,14695 18164,14689 18184,14684 18198,14677 18207,14664 18216,14652 18224,14635 18226,14614 18229,14591 18230,14562 18230,14525 L 18230,13344 C 18230,13299 18221,13271 18200,13260 18180,13251 18158,13245 18137,13243 18117,13242 18097,13239 18083,13234 18066,13231 18054,13222 18045,13205 18036,13196 18036,13188 18042,13179 18048,13172 18059,13167 18074,13167 L 18117,13167 18184,13167 C 18207,13167 18230,13168 18253,13170 18285,13173 18313,13173 18340,13173 L 18428,13173 18489,13173 C 18507,13173 18527,13173 18545,13173 18564,13172 18584,13170 18605,13170 18677,13170 18752,13175 18830,13182 18909,13190 18981,13208 19045,13234 19108,13262 19161,13302 19203,13354 19244,13406 19265,13476 19265,13566 19265,13609 19258,13655 19241,13698 19224,13744 19203,13787 19177,13826 19151,13870 19122,13907 19090,13944 19057,13979 19025,14011 18993,14040 19022,14069 19051,14101 19079,14132 19106,14164 19134,14198 19163,14233 19210,14288 19259,14346 19311,14404 19365,14461 19418,14513 19475,14560 19530,14606 19587,14643 19645,14672 19703,14700 19761,14710 19819,14703 L 19838,14752 C 19763,14782 19685,14799 19599,14799 Z"/>
       </g>
      </g>
      <g class="com.sun.star.drawing.ClosedBezierShape">
       <g id="id22">
        <rect class="BoundingBox" stroke="none" fill="none" x="19870" y="13133" width="1765" height="1626"/>
        <path fill="rgb(251,199,149)" stroke="none" d="M 20687,13540 C 20655,13624 20626,13706 20600,13782 20572,13861 20542,13942 20505,14028 L 20874,14028 20687,13540 Z M 21495,14755 C 21449,14756 21400,14758 21353,14758 21317,14758 21284,14756 21250,14756 21218,14755 21184,14753 21149,14752 21134,14752 21123,14747 21118,14738 21114,14727 21117,14718 21129,14709 L 21155,14677 C 21117,14586 21079,14499 21042,14415 21005,14332 20967,14245 20926,14153 L 20459,14153 C 20442,14184 20425,14225 20407,14273 20387,14322 20367,14369 20349,14418 20329,14467 20312,14511 20300,14553 20288,14594 20281,14623 20281,14641 20281,14663 20294,14677 20320,14684 20344,14690 20367,14695 20386,14700 20405,14701 20415,14710 20413,14727 20413,14744 20402,14752 20382,14752 L 19870,14742 19881,14690 C 19901,14697 19921,14695 19942,14687 19964,14681 19985,14667 20004,14652 20022,14635 20040,14617 20057,14594 20074,14574 20086,14554 20097,14536 20135,14444 20175,14349 20216,14251 20259,14153 20300,14057 20340,13965 20396,13827 20453,13690 20509,13554 20566,13418 20624,13283 20681,13147 20690,13135 20704,13130 20725,13136 20739,13141 20753,13155 20767,13173 20779,13193 20794,13214 20806,13239 20820,13263 20832,13289 20845,13315 20855,13343 20866,13367 20877,13389 L 20877,13386 C 20883,13400 20886,13412 20890,13421 20895,13433 20898,13441 20903,13447 L 20903,13444 21031,13742 C 21091,13884 21151,14025 21212,14167 21273,14308 21339,14447 21414,14580 21437,14625 21469,14654 21509,14667 21550,14681 21591,14689 21634,14693 L 21634,14746 C 21588,14750 21541,14753 21495,14755 Z"/>
       </g>
      </g>
      <g class="com.sun.star.drawing.ClosedBezierShape">
       <g id="id23">
        <rect class="BoundingBox" stroke="none" fill="none" x="21670" y="13134" width="1922" height="1654"/>
        <path fill="rgb(251,199,149)" stroke="none" d="M 23590,13225 C 23573,13228 23559,13231 23547,13234 L 23550,13234 C 23527,13240 23502,13248 23479,13257 23456,13268 23444,13283 23444,13305 L 23444,13488 C 23444,13545 23446,13605 23447,13664 23447,13721 23449,13782 23449,13848 23450,13915 23450,13975 23450,14031 23450,14155 23449,14279 23444,14398 23441,14519 23434,14641 23421,14764 23420,14775 23412,14782 23401,14785 23389,14788 23378,14787 23366,14781 23149,14619 22945,14444 22753,14259 22560,14075 22370,13886 22185,13698 L 22188,13698 22036,13551 C 22034,13569 22032,13586 22032,13603 L 22032,13658 C 22032,13732 22034,13805 22037,13877 22040,13947 22043,14021 22048,14095 22051,14167 22054,14239 22058,14311 22059,14383 22061,14455 22061,14528 22061,14562 22064,14588 22070,14608 22075,14629 22084,14643 22093,14652 22104,14663 22116,14669 22128,14674 22142,14678 22154,14681 22168,14681 22185,14686 22203,14689 22223,14692 22243,14695 22260,14704 22278,14716 22294,14724 22298,14735 22292,14746 22286,14758 22275,14764 22257,14764 22225,14762 22191,14761 22156,14762 22122,14762 22087,14764 22054,14764 L 21951,14764 C 21907,14764 21863,14762 21818,14761 21775,14759 21734,14753 21693,14742 21676,14739 21668,14730 21670,14713 21673,14698 21685,14690 21702,14690 L 21737,14690 C 21769,14695 21797,14687 21820,14666 21844,14646 21855,14617 21855,14577 L 21855,13205 C 21855,13190 21861,13178 21869,13167 21879,13156 21890,13147 21898,13138 21904,13135 21912,13133 21921,13135 21930,13136 21936,13138 21939,13141 22164,13346 22384,13554 22604,13762 22821,13970 23039,14181 23256,14395 23259,14334 23259,14277 23256,14219 23255,14161 23253,14103 23250,14043 23247,13993 23244,13941 23241,13888 23239,13834 23239,13782 23239,13733 23239,13702 23239,13672 23241,13644 23241,13615 23241,13585 23241,13554 L 23241,13377 C 23241,13346 23238,13321 23230,13303 23222,13285 23213,13271 23201,13263 23190,13254 23176,13248 23164,13245 23149,13242 23137,13239 23123,13237 23086,13234 23056,13225 23033,13211 23019,13205 23016,13196 23022,13185 23027,13173 23037,13167 23053,13167 L 23158,13164 C 23230,13164 23299,13164 23369,13167 23440,13170 23509,13173 23579,13176 L 23590,13225 Z"/>
       </g>
      </g>
      <g class="com.sun.star.drawing.ClosedBezierShape">
       <g id="id24">
        <rect class="BoundingBox" stroke="none" fill="none" x="23744" y="13134" width="1525" height="1631"/>
        <path fill="rgb(251,199,149)" stroke="none" d="M 25242,13460 C 25238,13474 25225,13481 25207,13481 25190,13481 25178,13474 25175,13460 25161,13392 25129,13350 25079,13331 25028,13313 24973,13304 24912,13304 L 24865,13304 C 24849,13304 24833,13305 24816,13307 24799,13308 24779,13310 24761,13310 L 24703,13310 C 24687,13310 24678,13311 24675,13311 24672,13314 24663,13313 24651,13310 L 24651,14512 C 24651,14518 24652,14530 24655,14546 24658,14562 24661,14579 24663,14599 24666,14616 24669,14634 24673,14648 24678,14662 24681,14671 24684,14673 L 24687,14673 C 24695,14677 24707,14680 24724,14680 24741,14683 24755,14685 24767,14686 24788,14688 24808,14691 24825,14696 24845,14700 24857,14709 24865,14725 24871,14735 24871,14743 24865,14751 24860,14758 24848,14763 24833,14763 24735,14763 24637,14761 24539,14760 24441,14758 24343,14755 24243,14751 24227,14751 24217,14743 24216,14728 24216,14712 24224,14703 24240,14699 24270,14694 24294,14691 24314,14686 24332,14680 24348,14673 24358,14660 24366,14648 24374,14634 24378,14613 24381,14593 24383,14564 24383,14530 L 24383,13307 24014,13307 C 23971,13307 23933,13319 23896,13347 23861,13374 23832,13406 23812,13446 23803,13458 23792,13461 23777,13460 23762,13458 23751,13452 23748,13440 23746,13434 23745,13421 23745,13402 23745,13377 23749,13348 23760,13314 23769,13282 23778,13250 23789,13221 23792,13212 23795,13201 23798,13190 23801,13178 23804,13166 23809,13155 23812,13146 23820,13140 23829,13137 23838,13134 23849,13134 23858,13137 23866,13143 23878,13149 23896,13154 23916,13158 23934,13163 23953,13166 23973,13171 23991,13175 24011,13178 24028,13180 24043,13181 24055,13181 L 25093,13181 C 25103,13181 25115,13180 25132,13175 25146,13172 25161,13167 25178,13163 L 25175,13163 C 25181,13161 25189,13158 25198,13157 25207,13155 25219,13155 25230,13152 25254,13149 25268,13158 25268,13178 L 25268,13224 C 25268,13305 25259,13383 25242,13460 Z"/>
       </g>
      </g>
      <g class="com.sun.star.drawing.ClosedBezierShape">
       <g id="id25">
        <rect class="BoundingBox" stroke="none" fill="none" x="25408" y="13144" width="1103" height="1615"/>
        <path fill="rgb(251,199,149)" stroke="none" d="M 26448,14739 L 26425,14752 C 26414,14756 26391,14758 26359,14758 26325,14758 26290,14756 26252,14756 26215,14755 26180,14755 26145,14753 26111,14753 26087,14752 26075,14752 26044,14752 26012,14753 25981,14753 25951,14755 25920,14755 25888,14755 25816,14755 25748,14755 25677,14756 25607,14756 25540,14756 25472,14752 25454,14750 25446,14741 25446,14724 25448,14707 25457,14700 25475,14700 25529,14698 25564,14681 25581,14649 25599,14617 25607,14574 25607,14522 L 25607,13331 C 25607,13297 25599,13276 25581,13265 25561,13254 25543,13248 25521,13243 25506,13239 25489,13236 25472,13231 25457,13228 25440,13222 25425,13211 25409,13204 25405,13193 25411,13182 25417,13170 25428,13164 25446,13164 25463,13164 25486,13165 25513,13167 25541,13167 25573,13167 25607,13167 25663,13170 25725,13172 25790,13173 25858,13173 25926,13173 25993,13173 26090,13173 26177,13172 26258,13167 26336,13164 26390,13158 26416,13147 26431,13144 26442,13144 26451,13150 26462,13156 26466,13164 26463,13173 26460,13211 26454,13245 26445,13276 26439,13306 26431,13338 26422,13369 26419,13381 26416,13395 26414,13406 26411,13418 26408,13430 26405,13441 26402,13455 26390,13461 26370,13461 26350,13461 26341,13453 26339,13438 26336,13404 26329,13378 26315,13360 26301,13340 26284,13326 26263,13315 26241,13303 26217,13297 26191,13292 26163,13289 26137,13286 26110,13286 26093,13286 26079,13288 26064,13289 26050,13289 26035,13289 26019,13289 26006,13289 25992,13291 25975,13291 25960,13292 25944,13292 25929,13292 L 25877,13292 25877,13849 26226,13849 C 26235,13849 26247,13846 26263,13838 26278,13832 26295,13826 26313,13820 L 26310,13820 C 26324,13812 26339,13801 26351,13789 26365,13774 26376,13766 26388,13762 26402,13759 26413,13760 26422,13766 26430,13774 26434,13782 26431,13791 26428,13817 26425,13847 26422,13881 26419,13916 26414,13945 26411,13971 26408,13994 26403,14017 26399,14040 26396,14063 26391,14089 26388,14117 26385,14126 26379,14132 26367,14137 26356,14141 26345,14138 26336,14130 26313,14117 26301,14107 26303,14103 26304,14098 26303,14091 26301,14081 26295,14063 26289,14048 26281,14031 26275,14017 26269,14006 26263,14002 26254,13996 26234,13988 26205,13984 26176,13979 26143,13976 26108,13974 26071,13971 26036,13971 26001,13971 L 25914,13971 25877,13971 25877,14534 C 25908,14577 25952,14608 26007,14626 26064,14646 26116,14655 26168,14655 26229,14655 26287,14640 26339,14611 26391,14580 26425,14533 26442,14464 26445,14459 26449,14455 26457,14452 26466,14449 26472,14447 26480,14449 26489,14450 26495,14453 26503,14458 26509,14461 26512,14467 26509,14473 L 26448,14739 Z"/>
       </g>
      </g>
      <g class="com.sun.star.drawing.ClosedBezierShape">
       <g id="id26">
        <rect class="BoundingBox" stroke="none" fill="none" x="17041" y="2058" width="1105" height="2818"/>
        <path fill="rgb(251,199,149)" stroke="none" d="M 18144,4717 C 18069,4682 18044,4616 18058,4495 18072,4376 18106,4231 17924,4214 17882,4093 17833,3911 17826,3686 17815,3383 17890,3299 17919,2895 17939,2589 17959,2257 17778,2127 17683,2061 17567,2058 17567,2058 17567,2058 17440,2055 17333,2129 17129,2269 17165,2667 17185,2895 17221,3299 17324,3394 17313,3717 17305,3936 17252,4110 17211,4219 17102,4275 17094,4275 17106,4515 17113,4615 17097,4677 17041,4713 17390,4928 17797,4928 18144,4717 Z"/>
       </g>
      </g>
      <g class="com.sun.star.drawing.ClosedBezierShape">
       <g id="id27">
        <rect class="BoundingBox" stroke="none" fill="none" x="11253" y="4710" width="12879" height="7163"/>
        <path fill="rgb(251,199,149)" stroke="none" d="M 24081,11353 C 24162,11335 24121,11009 24111,10787 24081,10702 24043,10619 24000,10543 23940,10523 23906,10472 23896,10365 23793,9354 23470,8414 22900,7568 22696,7268 22468,6985 22255,6699 22257,6690 22260,6682 22263,6673 22099,6425 21821,6289 21605,6090 21556,6084 21519,6063 21493,6032 21414,5977 21325,5914 21235,5851 20347,5226 19362,4855 18279,4748 18221,4744 18177,4733 18141,4716 17794,4927 17387,4926 17041,4710 17009,4731 16966,4745 16904,4751 15773,4875 14749,5276 13837,5957 13649,6099 13470,6251 13302,6385 13300,6384 13297,6384 13295,6384 13283,6402 13271,6419 13257,6439 13217,6496 13156,6519 13097,6517 13046,6546 12996,6577 12948,6612 12789,6728 12728,6889 12622,7046 12613,7063 12601,7076 12587,7088 12598,7106 12607,7126 12613,7149 11854,8136 11413,9274 11305,10512 11302,10515 11297,10515 11294,10518 11302,10567 11289,10621 11259,10661 11265,10776 11257,10890 11254,11006 11250,11179 11256,11350 11256,11523 11274,11529 11291,11538 11309,11549 11317,11633 11325,11716 11335,11800 11338,11821 11342,11844 11345,11867 11351,11867 11357,11866 11363,11866 11366,11866 11369,11866 11371,11867 11372,11866 11375,11866 11375,11866 11383,11866 11389,11867 11395,11867 11398,11867 11401,11866 11406,11866 11416,11866 11427,11867 11435,11867 11438,11867 11438,11867 11439,11867 11447,11867 11453,11866 11459,11866 11464,11866 11467,11867 11472,11867 11479,11867 11485,11866 11493,11866 11499,11866 11504,11867 11510,11867 11513,11867 11516,11866 11519,11866 11528,11866 11533,11867 11540,11867 11551,11867 11559,11866 11571,11866 11574,11866 11579,11867 11582,11867 11542,11584 11519,11298 11519,11004 11513,7688 14249,4950 17572,4943 20964,4935 23698,7643 23700,11014 23700,11306 23680,11592 23642,11872 23720,11872 23798,11872 23876,11872 23885,11798 23894,11725 23900,11652 23906,11586 23926,11549 23955,11529 23948,11453 23983,11376 24081,11353 Z"/>
       </g>
      </g>
      <g class="com.sun.star.drawing.ClosedBezierShape">
       <g id="id28">
        <rect class="BoundingBox" stroke="none" fill="none" x="22784" y="10226" width="358" height="302"/>
        <path fill="rgb(251,199,149)" stroke="none" d="M 23140,10389 C 23040,10458 22976,10536 22935,10525 22872,10510 22784,10431 22785,10380 22787,10325 22874,10232 22929,10226 22981,10221 23042,10309 23140,10389 Z"/>
       </g>
      </g>
      <g class="com.sun.star.drawing.ClosedBezierShape">
       <g id="id29">
        <rect class="BoundingBox" stroke="none" fill="none" x="12800" y="6214" width="9630" height="5667"/>
        <path fill="rgb(251,199,149)" stroke="none" d="M 21844,10669 C 21645,10700 21461,10735 21276,10756 21057,10782 20958,10770 20909,10764 20874,10761 20840,10755 20739,10744 20621,10730 20569,10726 20520,10721 20439,10712 20323,10695 20180,10660 20179,10556 20072,10536 19934,10542 19717,10553 19500,10541 19284,10556 19142,10565 19112,10478 19065,10380 19015,10276 18990,10196 19085,10100 19281,9901 19467,9693 19663,9482 19631,9430 19604,9384 19590,9363 19669,9275 19741,9197 19789,9145 19864,9014 19937,8914 19992,8845 20046,8781 20098,8724 20182,8634 20205,8608 20280,8527 20337,8469 20418,8390 20545,8275 20733,8147 20887,8318 20936,8032 21082,7986 21712,8712 22081,9554 22200,10498 22081,10556 21962,10611 21844,10669 Z M 18384,9445 C 18335,9491 18233,9529 18176,9508 18121,9488 18067,9390 18063,9324 18052,9107 18055,8890 18066,8674 18067,8631 18072,8535 18014,8451 18000,8431 17985,8417 17974,8410 17960,8398 17940,8378 17928,8350 17913,8321 17916,8297 17910,8272 17890,8180 17885,8163 17881,8131 17876,8102 17872,8061 17870,7971 17867,7859 17870,7773 17870,7772 17878,7574 17855,7453 17865,7307 17879,7134 17916,6962 17945,6771 18124,6791 18046,6595 18078,6442 18917,6520 19660,6817 20344,7310 20268,7452 20050,7533 20208,7657 20101,7807 20009,7949 19904,8082 19803,8206 19691,8324 19576,8437 19497,8515 19405,8579 19322,8645 19241,8729 19172,8799 19137,8836 19015,8885 18909,8899 18846,8957 18684,9110 18545,9289 18384,9445 Z M 17315,7700 C 17310,7793 17301,7844 17301,7965 17301,8062 17307,8092 17301,8150 17290,8249 17250,8333 17212,8396 17172,8486 17111,8571 17106,8659 17093,8882 17097,9107 17108,9330 17114,9456 17050,9503 16949,9539 16846,9574 16758,9644 16651,9529 16497,9366 16332,9213 16161,9070 16095,9015 15994,9003 15872,8959 15763,8905 15619,8827 15459,8720 15301,8614 15128,8497 14952,8298 14871,8208 14767,8076 14669,7897 14686,7868 14713,7822 14742,7772 14683,7706 14629,7646 14560,7571 15287,6930 16121,6569 17033,6451 17111,6600 17166,6704 17220,6805 17246,6962 17279,7138 17301,7314 17318,7452 17322,7558 17315,7700 Z M 15795,10550 C 15593,10555 15388,10539 15186,10550 15111,10556 15036,10617 14963,10652 L 14954,10668 C 14886,10686 14793,10709 14677,10726 14496,10755 14353,10753 14200,10752 14042,10750 13926,10741 13755,10727 13577,10712 13430,10697 13326,10683 13331,10538 13196,10535 13023,10544 13112,9710 13403,8974 13897,8290 14013,8387 14114,8527 14210,8402 14379,8489 14508,8578 14600,8646 14683,8709 14750,8769 14883,8888 14995,8986 15053,9038 15113,9104 15214,9216 15278,9314 15310,9364 15353,9431 15382,9485 15399,9517 15466,9647 15463,9714 15508,9762 15645,9910 15809,10033 15948,10181 16008,10245 16066,10351 16060,10432 16049,10594 15899,10548 15795,10550 Z M 17596,6214 C 14964,6214 12798,8382 12801,11018 12798,11307 12824,11590 12872,11864 12878,11864 12885,11864 12893,11864 12901,11864 12908,11864 12916,11866 12921,11864 12925,11864 12930,11864 12940,11864 12951,11864 12959,11866 12960,11866 12962,11866 12962,11866 12968,11866 12971,11867 12977,11867 12983,11867 12989,11866 12997,11866 13003,11866 13006,11867 13011,11867 13019,11867 13026,11866 13032,11866 13037,11866 13040,11867 13045,11867 13046,11867 13049,11866 13052,11866 13058,11866 13066,11867 13072,11867 13054,11766 13037,11664 13023,11561 13130,11459 13367,11603 13321,11396 13540,11352 13725,11326 13866,11309 14110,11281 14209,11286 14249,11287 14279,11289 14347,11295 14605,11338 14741,11361 14854,11381 14932,11396 15038,11439 15122,11499 15212,11503 15428,11517 15647,11492 15862,11509 15937,11517 16026,11587 16075,11652 16098,11682 16118,11716 16130,11750 16158,11745 16187,11742 16216,11740 16106,11526 16043,11280 16043,11018 16043,10178 16736,9488 17584,9488 18424,9486 19117,10180 19120,11023 19122,11290 19054,11540 18938,11760 18952,11763 18967,11766 18984,11768 18995,11769 19004,11771 19016,11771 19027,11724 19059,11684 19102,11656 19102,11645 19103,11636 19106,11627 19129,11567 19247,11514 19328,11509 19536,11494 19749,11518 19957,11505 20043,11499 20124,11436 20158,11422 20245,11390 20356,11356 20488,11330 20558,11317 20704,11289 20886,11287 21097,11286 21152,11323 21406,11346 21507,11355 21654,11364 21838,11356 21816,11595 22032,11477 22193,11531 22182,11649 22165,11765 22145,11880 22214,11880 22284,11878 22353,11878 22402,11607 22428,11330 22428,11046 22436,8373 20271,6214 17596,6214 Z"/>
       </g>
      </g>
      <g class="com.sun.star.drawing.ClosedBezierShape">
       <g id="id30">
        <rect class="BoundingBox" stroke="none" fill="none" x="16809" y="10255" width="1548" height="1547"/>
        <path fill="rgb(251,199,149)" stroke="none" d="M 17575,11800 C 17147,11800 16807,11456 16809,11026 16809,10602 17159,10252 17580,10255 18005,10257 18355,10610 18355,11031 18355,11455 18008,11798 17575,11800 Z"/>
       </g>
      </g>
      <g class="com.sun.star.drawing.ClosedBezierShape">
       <g id="id31">
        <rect class="BoundingBox" stroke="none" fill="none" x="17393" y="5452" width="339" height="340"/>
        <path fill="rgb(251,199,149)" stroke="none" d="M 17731,5623 C 17731,5716 17655,5791 17561,5791 17468,5791 17393,5716 17393,5623 17393,5527 17468,5452 17561,5452 17655,5452 17731,5527 17731,5623 Z"/>
       </g>
      </g>
      <g class="com.sun.star.drawing.ClosedBezierShape">
       <g id="id32">
        <rect class="BoundingBox" stroke="none" fill="none" x="19914" y="6082" width="339" height="339"/>
        <path fill="rgb(251,199,149)" stroke="none" d="M 20252,6253 C 20252,6345 20177,6420 20084,6420 19990,6420 19915,6345 19915,6253 19915,6157 19990,6082 20084,6082 20177,6082 20252,6157 20252,6253 Z"/>
       </g>
      </g>
      <g class="com.sun.star.drawing.ClosedBezierShape">
       <g id="id33">
        <rect class="BoundingBox" stroke="none" fill="none" x="14873" y="6082" width="339" height="339"/>
        <path fill="rgb(251,199,149)" stroke="none" d="M 15211,6253 C 15211,6345 15136,6420 15042,6420 14948,6420 14873,6345 14873,6253 14873,6157 14948,6082 15042,6082 15136,6082 15211,6157 15211,6253 Z"/>
       </g>
      </g>
      <g class="com.sun.star.drawing.ClosedBezierShape">
       <g id="id34">
        <rect class="BoundingBox" stroke="none" fill="none" x="12939" y="7848" width="340" height="339"/>
        <path fill="rgb(251,199,149)" stroke="none" d="M 13278,8018 C 13278,8111 13202,8186 13108,8186 13015,8186 12939,8111 12939,8018 12939,7924 13015,7848 13108,7848 13202,7848 13278,7924 13278,8018 Z"/>
       </g>
      </g>
      <g class="com.sun.star.drawing.ClosedBezierShape">
       <g id="id35">
        <rect class="BoundingBox" stroke="none" fill="none" x="21973" y="7848" width="340" height="339"/>
        <path fill="rgb(251,199,149)" stroke="none" d="M 22312,8018 C 22312,8111 22237,8186 22144,8186 22049,8186 21973,8111 21973,8018 21973,7924 22049,7848 22144,7848 22237,7848 22312,7924 22312,8018 Z"/>
       </g>
      </g>
      <g class="com.sun.star.drawing.ClosedBezierShape">
       <g id="id36">
        <rect class="BoundingBox" stroke="none" fill="none" x="22813" y="10200" width="340" height="341"/>
        <path fill="rgb(251,199,149)" stroke="none" d="M 23152,10371 C 23152,10464 23076,10539 22981,10539 22888,10539 22813,10464 22813,10371 22813,10277 22888,10200 22981,10200 23076,10200 23152,10277 23152,10371 Z"/>
       </g>
      </g>
      <g class="com.sun.star.drawing.ClosedBezierShape">
       <g id="id37">
        <rect class="BoundingBox" stroke="none" fill="none" x="12056" y="10200" width="340" height="341"/>
        <path fill="rgb(251,199,149)" stroke="none" d="M 12395,10371 C 12395,10464 12319,10539 12226,10539 12133,10539 12056,10464 12056,10371 12056,10277 12133,10200 12226,10200 12319,10200 12395,10277 12395,10371 Z"/>
       </g>
      </g>
      <g class="com.sun.star.drawing.ClosedBezierShape">
       <g id="id38">
        <rect class="BoundingBox" stroke="none" fill="none" x="17393" y="9697" width="339" height="338"/>
        <path fill="rgb(251,199,149)" stroke="none" d="M 17731,9865 C 17731,9959 17655,10034 17561,10034 17468,10034 17393,9959 17393,9865 17393,9772 17468,9697 17561,9697 17655,9697 17731,9772 17731,9865 Z"/>
       </g>
      </g>
      <g class="com.sun.star.drawing.ClosedBezierShape">
       <g id="id39">
        <rect class="BoundingBox" stroke="none" fill="none" x="18569" y="10915" width="339" height="338"/>
        <path fill="rgb(251,199,149)" stroke="none" d="M 18907,11084 C 18907,11177 18832,11252 18739,11252 18645,11252 18570,11177 18570,11084 18570,10992 18645,10915 18739,10915 18832,10915 18907,10992 18907,11084 Z"/>
       </g>
      </g>
      <g class="com.sun.star.drawing.ClosedBezierShape">
       <g id="id40">
        <rect class="BoundingBox" stroke="none" fill="none" x="16258" y="10915" width="340" height="339"/>
        <path fill="rgb(251,199,149)" stroke="none" d="M 16597,11084 C 16597,11177 16522,11252 16429,11252 16334,11252 16258,11177 16258,11084 16258,10992 16334,10915 16429,10915 16522,10915 16597,10992 16597,11084 Z"/>
       </g>
      </g>
      <g class="com.sun.star.drawing.ClosedBezierShape">
       <g id="id41">
        <rect class="BoundingBox" stroke="none" fill="none" x="17015" y="6418" width="299" height="368"/>
        <path fill="rgb(251,199,149)" stroke="none" d="M 17015,6419 C 17029,6517 17043,6615 17058,6713 17067,6733 17079,6745 17090,6755 17171,6819 17302,6761 17312,6757 17213,6643 17113,6531 17015,6419 Z"/>
       </g>
      </g>
      <g class="com.sun.star.drawing.ClosedBezierShape">
       <g id="id42">
        <rect class="BoundingBox" stroke="none" fill="none" x="21477" y="4270" width="2251" height="2495"/>
        <path fill="rgb(251,199,149)" stroke="none" d="M 22309,6763 C 22276,6687 22300,6621 22391,6538 22478,6457 22597,6370 22470,6240 22516,6120 22597,5950 22738,5774 22928,5537 23039,5521 23324,5234 23538,5015 23773,4776 23718,4559 23691,4447 23603,4369 23603,4369 23603,4369 23508,4285 23379,4271 23133,4245 22900,4570 22767,4756 22531,5085 22548,5226 22329,5463 22181,5624 22026,5722 21924,5777 21808,5748 21800,5743 21653,5933 21593,6013 21543,6049 21477,6042 21601,6431 21909,6698 22309,6763 Z"/>
       </g>
      </g>
      <g class="com.sun.star.drawing.ClosedBezierShape">
       <g id="id43">
        <rect class="BoundingBox" stroke="none" fill="none" x="10875" y="4897" width="2462" height="2295"/>
        <path fill="rgb(251,199,149)" stroke="none" d="M 13336,6382 C 13259,6414 13195,6386 13114,6295 13036,6204 12952,6082 12817,6206 12701,6154 12534,6068 12364,5923 12132,5723 12121,5611 11842,5319 11631,5096 11397,4857 11180,4904 11068,4927 10984,5011 10984,5011 10984,5011 10897,5103 10879,5230 10845,5477 11164,5720 11348,5860 11668,6106 11809,6094 12040,6321 12196,6474 12288,6631 12340,6735 12307,6852 12303,6859 12488,7011 12565,7073 12600,7127 12589,7191 12982,7081 13258,6781 13336,6382 Z"/>
       </g>
      </g>
      <g class="com.sun.star.drawing.ClosedBezierShape">
       <g id="id44">
        <rect class="BoundingBox" stroke="none" fill="none" x="8664" y="10475" width="2818" height="1104"/>
        <path fill="rgb(251,199,149)" stroke="none" d="M 11324,10475 C 11287,10552 11222,10575 11101,10561 10981,10547 10836,10515 10821,10696 10701,10737 10518,10786 10294,10794 9991,10804 9907,10729 9501,10702 9195,10679 8863,10661 8734,10841 8667,10936 8664,11054 8664,11054 8664,11054 8661,11179 8734,11285 8875,11490 9273,11455 9501,11435 9907,11398 10002,11296 10325,11306 10544,11314 10718,11368 10827,11410 10882,11516 10882,11525 11122,11513 11220,11508 11283,11522 11318,11578 11534,11230 11534,10824 11324,10475 Z"/>
       </g>
      </g>
      <g class="com.sun.star.drawing.ClosedBezierShape">
       <g id="id45">
        <rect class="BoundingBox" stroke="none" fill="none" x="23758" y="10480" width="2819" height="1105"/>
        <path fill="rgb(251,199,149)" stroke="none" d="M 23916,11583 C 23954,11505 24021,11482 24142,11496 24260,11508 24405,11542 24420,11360 24540,11320 24722,11271 24947,11262 25250,11251 25334,11326 25738,11355 26044,11375 26377,11395 26506,11215 26572,11120 26575,11003 26575,11003 26575,11003 26578,10876 26506,10771 26365,10567 25966,10601 25738,10622 25334,10658 25239,10760 24916,10749 24699,10743 24523,10688 24416,10647 24361,10540 24359,10531 24119,10544 24021,10549 23960,10534 23922,10480 23706,10826 23705,11233 23916,11583 Z"/>
       </g>
      </g>
     </g>
    </g>
   </g>
  </g>
 </g>
</svg>